<?xml version="1.0" encoding="UTF-8" standalone="no"?>
<!DOCTYPE svg PUBLIC "-//W3C//DTD SVG 1.1//EN" "http://www.w3.org/Graphics/SVG/1.1/DTD/svg11.dtd">
<svg width="100%" height="100%" viewBox="0 0 647 641" version="1.1" xmlns="http://www.w3.org/2000/svg" xmlns:xlink="http://www.w3.org/1999/xlink" xml:space="preserve" xmlns:serif="http://www.serif.com/" style="fill-rule:evenodd;clip-rule:evenodd;stroke-linejoin:round;stroke-miterlimit:2;">
    <g transform="matrix(1,0,0,1,-1654.61,0)">
        <g id="Artboard4" transform="matrix(0.916963,0,0,0.969453,156.234,1658.66)">
            <rect x="1634.07" y="-1710.92" width="704.89" height="660.488" style="fill:none;"/>
            <clipPath id="_clip1">
                <rect x="1634.07" y="-1710.92" width="704.89" height="660.488"/>
            </clipPath>
            <g clip-path="url(#_clip1)">
                <g transform="matrix(8.82064,0,0,8.34306,1172.19,-2068.15)">
                    <g transform="matrix(1,0,0,1,0,-430.282)">
                        <path d="M52.363,473.36L92.32,552.242L52.363,552.242L52.363,473.36ZM92.32,473.36L132.277,473.36L132.277,552.242L92.32,473.36Z" style="fill:white;"/>
                    </g>
                    <g transform="matrix(-1,0,0,1.00002,158.565,-481.178)">
                        <ellipse cx="79.282" cy="538.245" rx="14.259" ry="14.259" style="fill:white;"/>
                    </g>
                    <g transform="matrix(1,0,0,1,0,-398.709)">
                        <path d="M75.932,473.361L100.133,473.361L124.096,520.668L99.895,520.668L75.932,473.361Z" style="fill:white;"/>
                    </g>
                </g>
            </g>
        </g>
    </g>
</svg>
